<svg xmlns="http://www.w3.org/2000/svg" width="100" height="100" viewBox="0 0 30 30">
  <path d="M 22 15.5 C 22 19.08985 19.08985 22 15.5 22 C 13.40625 22 11.5 20.59375 10.6875 18.6875 C 10.59375 18.46875 10.6875 18.21875 10.90625 18.125 C 11.125 18.03125 11.375 18.125 11.46875 18.34375 C 12.1875 19.96875 13.71875 21 15.5 21 C 18.5375 21 21 18.5375 21 15.5 C 21 13.71875 19.96875 12.1875 18.34375 11.46875 C 18.125 11.375 18.03125 11.125 18.125 10.90625 C 18.21875 10.6875 18.46875 10.59375 18.6875 10.6875 C 20.59375 11.5 22 13.40625 22 15.5 Z" fill="#fff" stroke="#6366F1" stroke-width="1.5"/>
</svg>
