<svg xmlns="http://www.w3.org/2000/svg" viewBox="0 0 24 24" fill="none" stroke="currentColor" stroke-width="2" stroke-linecap="round" stroke-linejoin="round">
  <circle cx="12" cy="12" r="3" />
  <path d="M19.4 15a1.65 1.65 0 01.33 1.82l-1.09 1.91a1.65 1.65 0 01-2.1.73 1.65 1.65 0 00-1.57 0 1.65 1.65 0 01-2.1-.73l-1.09-1.91a1.65 1.65 0 01.33-1.82 1.65 1.65 0 000-2.82 1.65 1.65 0 01-.33-1.82l1.09-1.91a1.65 1.65 0 012.1-.73 1.65 1.65 0 001.57 0 1.65 1.65 0 012.1.73l1.09 1.91a1.65 1.65 0 01-.33 1.82 1.65 1.65 0 000 2.82z" />
</svg>